<svg xmlns="http://www.w3.org/2000/svg" width="420" height="140" viewBox="0 0 420 140">
  <!-- Cada retângulo representa um spine -->
  <rect x="0"   y="80"  width="14" height="60"  fill="#8B6914" opacity="0.35" rx="2" ry="2"/>
  <rect x="16"  y="50"  width="18" height="90"  fill="#4A7A5A" opacity="0.45" rx="2" ry="2"/>
  <rect x="36"  y="68"  width="15" height="72"  fill="#5A4A7A" opacity="0.30" rx="2" ry="2"/>
  <rect x="53"  y="30"  width="20" height="110" fill="#D4A853" opacity="0.55" rx="2" ry="2"/>
  <rect x="75"  y="60"  width="16" height="80"  fill="#3A5A7A" opacity="0.40" rx="2" ry="2"/>
  <rect x="93"  y="10"  width="22" height="130" fill="#8B6914" opacity="0.60" rx="2" ry="2"/>
  <rect x="117" y="75"  width="14" height="65"  fill="#7A3A3A" opacity="0.30" rx="2" ry="2"/>
  <rect x="133" y="40"  width="19" height="100" fill="#4A7A5A" opacity="0.45" rx="2" ry="2"/>
  <rect x="154" y="55"  width="17" height="85"  fill="#D4A853" opacity="0.50" rx="2" ry="2"/>
  <rect x="173" y="20"  width="21" height="120" fill="#5A4A7A" opacity="0.40" rx="2" ry="2"/>
  <rect x="194" y="70"  width="14" height="70"  fill="#3A5A7A" opacity="0.30" rx="2" ry="2"/>
  <rect x="210" y="55"  width="18" height="95"  fill="#8B6914" opacity="0.40" rx="2" ry="2"/>
  <rect x="228" y="0"   width="23" height="140" fill="#D4A853" opacity="0.65" rx="2" ry="2"/>
  <rect x="253" y="65"  width="15" height="75"  fill="#7A3A3A" opacity="0.35" rx="2" ry="2"/>
  <rect x="270" y="32"  width="20" height="108" fill="#4A7A5A" opacity="0.48" rx="2" ry="2"/>
  <rect x="290" y="78"  width="13" height="62"  fill="#5A4A7A" opacity="0.28" rx="2" ry="2"/>
  <rect x="305" y="52"  width="17" height="88"  fill="#8B6914" opacity="0.42" rx="2" ry="2"/>
  <rect x="322" y="25"  width="21" height="115" fill="#3A5A7A" opacity="0.52" rx="2" ry="2"/>
</svg>